<?xml version="1.0" encoding="utf-8"?>
      <!-- Generator: Adobe Illustrator 25.4.1, SVG Export Plug-In . SVG Version: 6.00 Build 0)  -->
      <svg version="1.1" id="Capa_1" xmlns="http://www.w3.org/2000/svg" xmlns:xlink="http://www.w3.org/1999/xlink" x="0px" y="0px"
        viewBox="40 0 200 200" style="enable-background:new 0 0 270 195;" xml:space="preserve">
      <style type="text/css">
        .st0{fill:#c058d7;}
        .st1{fill:none;stroke:#c058d7;stroke-miterlimit:10;}
        .st2{fill:#FFFFFF;}
      </style>
      <g>
        <g>
          <g>
            <circle class="st0" cx="135.8" cy="97.3" r="81.9"/>
            <circle class="st1" cx="135.8" cy="97.3" r="93.2"/>
          </g>
        </g>
        <g>
          <g>
            <g>
              <g>
                <path class="st2" d="M158.7,114.6c13.2-13.2,13.2-34.6,0-47.7c-13.2-13.2-34.6-13.2-47.7,0c-13.2,13.2-13.2,34.6,0,47.7
                  c5.5,5.5,12.6,8.8,19.9,9.7v11.3H123c-2.2,0-4,1.8-4,4s1.8,4,4,4h7.9v11.2c0,2.2,1.8,4,4,4s4-1.8,4-4v-11.2h7.9
                  c2.2,0,4-1.8,4-4s-1.8-4-4-4h-7.9v-11.3C146.1,123.5,153,120.2,158.7,114.6z M116.5,109c-10-10-10-26.4,0-36.5
                  c10-10,26.5-10,36.5,0c10,10,10,26.4,0,36.5C143,119.1,126.5,119.1,116.5,109z"/>
              </g>
            </g>
          </g>
          <g>
            <path class="st2" d="M158,73.3c7.7-6.4,15.3-12.8,23-19.2"/>
            <g>
              <path class="st2" d="M159.7,75c6-5.1,11.9-10,17.9-15.1c1.6-1.4,3.3-2.8,5.1-4.2c0.5-0.4,0.7-1.2,0.7-1.8c0-0.6-0.2-1.4-0.7-1.8
                c-0.5-0.5-1.1-0.8-1.8-0.7c-0.7,0-1.3,0.2-1.8,0.7c-6,5.1-11.9,10-17.9,15.1c-1.6,1.4-3.3,2.8-5.1,4.2c-0.5,0.4-0.7,1.2-0.7,1.8
                s0.2,1.4,0.7,1.8c0.5,0.5,1.1,0.8,1.8,0.7C158.7,75.7,159.1,75.5,159.7,75L159.7,75z"/>
            </g>
          </g>
          <g>
            <path class="st2" d="M168.9,55c4.5,0,9,0,13.4,0c-0.8-1.1-1.6-2.1-2.5-3.2c-0.8,4.6-1.8,9.3-2.6,13.9c-0.1,0.7-0.1,1.3,0.2,2
              c0.4,0.5,0.9,1.1,1.5,1.2c1.3,0.2,2.8-0.4,3.1-1.8c0.8-4.6,1.8-9.3,2.6-13.9c0.1-0.8,0.1-1.5-0.5-2.2c-0.5-0.6-1.2-0.9-2-0.9
              c-4.5,0-9,0-13.4,0c-1.3,0-2.6,1.2-2.6,2.6C166.4,53.8,167.5,55,168.9,55L168.9,55z"/>
          </g>
          <g>
            <path class="st2" d="M107.4,76.1C99.3,70.3,91.1,64.4,83,58.7"/>
            <g>
              <path class="st2" d="M108.7,73.9c-6.4-4.6-12.7-9.1-19-13.7c-1.8-1.3-3.5-2.6-5.3-3.8c-0.5-0.4-1.4-0.5-2-0.2
                c-0.6,0.1-1.2,0.6-1.5,1.2c-0.7,1.3-0.2,2.6,0.9,3.4c6.4,4.6,12.7,9.1,19,13.7c1.8,1.3,3.5,2.6,5.3,3.8c0.5,0.4,1.4,0.5,2,0.2
                c0.6-0.1,1.2-0.6,1.5-1.2C110.2,76,109.8,74.7,108.7,73.9L108.7,73.9z"/>
            </g>
          </g>
          <g>
            <path class="st2" d="M86.9,69.8c-1.2-4.4-2.2-8.7-3.4-13.1c-0.8,1.1-1.6,2.1-2.5,3.2c4.7-0.4,9.4-0.7,14.1-0.9
              c0.7,0,1.3-0.2,1.8-0.7c0.5-0.5,0.8-1.2,0.7-1.8c0-1.3-1.1-2.6-2.6-2.6c-4.7,0.4-9.4,0.7-14.1,0.9c-1.6,0.1-2.8,1.5-2.5,3.2
              c1.2,4.4,2.2,8.7,3.4,13.1c0.4,1.3,1.9,2.2,3.1,1.8C86.4,72.6,87.3,71.3,86.9,69.8L86.9,69.8z"/>
          </g>
          <g>
            <path class="st2" d="M94.3,75.5c2.8-4,5.7-8,8.5-12.1c1.5-2.1-2-4.1-3.5-2c-2.8,4-5.7,8-8.5,12.1C89.3,75.6,92.8,77.6,94.3,75.5
              L94.3,75.5z"/>
          </g>
        </g>
        <g>
          <g id="surface1">
            <path class="st2" d="M148.4,87.5c-2.5-1.8-4.1,0.2-6,2.5c-0.5-2.6,2-13-3.7-11.2c0.8-4.2-5.7-5.3-5.9-0.9
              c-2.2-1.1-4.6,1.2-4.1,3.4c-1.5-0.6-3.3,0.7-3.3,2.4v12.6c0,10.8,15.3,10.5,18.5,1.8C145.1,94.6,151.4,90.7,148.4,87.5z
              M147.6,89.4c-4.5,5.9-8.5,17.2-17.9,12.1c-4-2-2-14.3-2.5-17.9c2.1-3.3,1.4,4.1,1.5,4.8c0.2,0.9,1.8,0.8,1.8-0.1v-7.9
              c0-1.5,2.5-1.5,2.4,0c0,0.2-0.1,8.5,0.2,8.4c3.7,2.6-0.5-12.7,2.7-12.1c2.5-0.2,0.7,10.7,1.3,11.9c0.2,0.9,1.8,0.7,1.6-0.2v-7.1
              c0.1-1.2,2-1.1,2,0.1c0.5,0.9-1.5,14.7,2.2,10.8C144.2,90.7,146.5,86.9,147.6,89.4z"/>
          </g>
        </g>
      </g>
      </svg>